<?xml version="1.0" standalone="no"?>
<!DOCTYPE svg PUBLIC "-//W3C//DTD SVG 20010904//EN"
 "http://www.w3.org/TR/2001/REC-SVG-20010904/DTD/svg10.dtd">
<svg version="1.0" xmlns="http://www.w3.org/2000/svg"
 width="455.000000pt" height="385.000000pt" viewBox="0 0 455.000000 385.000000"
 preserveAspectRatio="xMidYMid meet">
<metadata>
Created by potrace 1.16, written by Peter Selinger 2001-2019
</metadata>
<g transform="translate(0.000000,385.000000) scale(0.100000,-0.100000)"
fill="#000000" stroke="none">
<path d="M1626 3267 c-67 -38 -76 -68 -76 -255 0 -141 2 -163 16 -169 31 -12
49 11 52 66 l3 51 710 0 709 0 -1 -637 c-1 -351 -5 -620 -9 -599 -12 62 -47
86 -126 86 -59 0 -68 -3 -95 -29 -19 -19 -29 -40 -29 -59 0 -24 -6 -32 -30
-41 -25 -8 -36 -7 -63 9 -44 27 -77 25 -124 -9 -69 -50 -89 -125 -46 -173 23
-26 1 -75 -38 -83 -41 -9 -76 -41 -84 -75 l-7 -30 -384 0 -384 0 0 130 c0 120
-1 130 -21 140 -15 9 -24 8 -35 -1 -11 -9 -14 -54 -14 -243 0 -266 4 -283 80
-323 43 -23 46 -23 456 -23 398 0 413 -1 419 -19 3 -11 24 -36 45 -55 45 -41
98 -48 138 -20 32 22 92 3 92 -31 0 -40 45 -83 95 -90 79 -12 141 22 154 86 9
43 51 59 91 35 55 -32 118 -13 165 49 32 41 35 90 9 134 -24 41 -9 76 39 85
51 10 80 46 84 108 6 77 -18 119 -79 138 -60 19 -75 51 -45 91 11 15 19 43 19
64 0 31 -8 45 -46 84 -43 43 -50 46 -96 45 l-50 0 -2 742 c-3 732 -3 743 -24
770 -11 15 -33 37 -48 48 -27 21 -38 21 -704 23 l-677 3 -39 -23z m1324 -1556
c0 -49 21 -79 72 -100 63 -26 100 -27 123 -1 24 27 36 25 69 -9 l29 -30 -27
-31 c-32 -39 -32 -44 0 -119 27 -62 33 -66 94 -73 23 -3 25 -7 25 -48 0 -44
-1 -45 -37 -51 -50 -8 -62 -20 -88 -89 -24 -65 -26 -57 25 -126 6 -9 2 -21
-15 -39 -29 -30 -39 -31 -85 -4 l-35 21 -65 -27 c-62 -27 -66 -31 -79 -74 -12
-41 -16 -46 -45 -49 -40 -4 -61 12 -61 48 0 33 -20 51 -80 73 -56 21 -80 21
-106 2 -27 -20 -44 -19 -71 7 -28 26 -28 33 -3 65 26 33 25 49 -4 116 -27 60
-34 67 -80 77 -29 5 -31 9 -31 50 0 37 3 45 20 48 60 9 66 13 90 68 30 68 31
93 5 127 -25 32 -25 35 2 64 26 28 49 29 73 3 24 -27 59 -25 125 8 46 23 55
32 58 57 5 51 9 55 57 55 37 0 45 -3 45 -19z"/>
<path d="M2835 1491 c-84 -38 -130 -132 -106 -216 40 -146 200 -202 310 -109
49 42 71 89 71 150 0 55 -11 83 -51 128 -57 66 -144 84 -224 47z m135 -76 c39
-20 60 -53 60 -92 0 -61 -19 -56 -110 31 -45 44 -58 61 -48 67 20 13 66 10 98
-6z m-123 -99 c33 -29 30 -35 -14 -29 -27 4 -33 10 -33 29 0 30 12 30 47 0z"/>
<path d="M1055 2761 c-49 -12 -83 -40 -105 -86 -20 -42 -21 -54 -18 -472 l3
-430 29 -37 c52 -69 29 -67 700 -64 772 4 698 -33 706 356 l5 257 52 101 c39
76 49 104 40 113 -21 21 -37 11 -66 -46 l-30 -58 -1 123 c0 143 -15 185 -77
223 l-38 24 -585 2 c-322 1 -599 -2 -615 -6z m1210 -96 c25 -24 25 -25 25
-230 l0 -205 -61 -121 c-33 -67 -58 -127 -55 -135 3 -8 14 -14 26 -14 14 0 29
18 54 68 l35 67 1 -149 c0 -140 -1 -151 -22 -173 l-21 -23 -596 0 -595 0 -23
22 -23 21 0 424 0 424 25 24 24 25 591 0 591 0 24 -25z"/>
<path d="M1948 2255 c-66 -43 -98 -71 -98 -83 0 -13 28 -38 83 -74 116 -78
125 -82 143 -67 27 22 13 44 -63 92 l-77 49 78 49 c63 40 77 54 74 72 -5 38
-39 29 -140 -38z"/>
<path d="M2562 2308 c-22 -22 -12 -35 64 -86 l76 -50 -76 -51 c-42 -28 -76
-58 -76 -65 0 -20 27 -39 42 -30 103 59 198 129 198 145 0 13 -32 39 -100 84
-56 36 -104 65 -108 65 -5 0 -13 -5 -20 -12z"/>
</g>
</svg>
